<svg xmlns="http://www.w3.org/2000/svg" version="1.1" xmlns:xlink="http://www.w3.org/1999/xlink" xmlns:svgjs="http://svgjs.dev/svgjs" width="1500" height="1500" viewBox="0 0 1500 1500"><rect width="1500" height="1500" fill="#ffffff"></rect><g transform="matrix(0.6666666666666666,0,0,0.6666666666666666,249.39393939393932,464.1709855233311)"><svg viewBox="0 0 396 226" data-background-color="#ffffff" preserveAspectRatio="xMidYMid meet" height="856" width="1500" xmlns="http://www.w3.org/2000/svg" xmlns:xlink="http://www.w3.org/1999/xlink"><g id="tight-bounds" transform="matrix(1,0,0,1,0.24000000000003752,0.19630363036304743)"><svg viewBox="0 0 395.5199999999999 225.6073927392739" height="225.6073927392739" width="395.5199999999999"><g><svg viewBox="0 0 395.5199999999999 225.6073927392739" height="225.6073927392739" width="395.5199999999999"><g><svg viewBox="0 0 395.5199999999999 225.6073927392739" height="225.6073927392739" width="395.5199999999999"><g id="textblocktransform"><svg viewBox="0 0 395.5199999999999 225.6073927392739" height="225.6073927392739" width="395.5199999999999" id="textblock"><g><svg viewBox="0 0 395.5199999999999 225.6073927392739" height="225.6073927392739" width="395.5199999999999"><g transform="matrix(1,0,0,1,0,0)"><svg width="395.5199999999999" viewBox="1.71 -24.71 44.38 25.32" height="225.6073927392739" data-palette-color="#1d597d"><g class="wordmark-text-0" data-fill-palette-color="primary" id="text-0"><path d="M21.61-4.71L21.61-4.71 21.61-1.86Q19.92-0.95 17.81-0.17 15.7 0.61 13.16 0.61L13.16 0.61Q9.67 0.61 7.09-1.03 4.52-2.66 3.11-5.48 1.71-8.3 1.71-11.89L1.71-11.89Q1.71-16.09 3.38-18.95 5.05-21.8 7.8-23.25 10.55-24.71 13.75-24.71L13.75-24.71Q17.04-24.71 19.27-23.43 21.51-22.14 21.51-19.7L21.51-19.7Q21.51-18.24 20.59-17.49 19.68-16.75 18.55-16.75L18.55-16.75Q17.72-16.75 17.11-17.03 16.5-17.31 16.04-17.6L16.04-17.6 16.04-21.95Q14.89-22.61 13.94-22.61L13.94-22.61Q11.72-22.61 10.12-21.3 8.52-20 7.67-17.72 6.81-15.45 6.81-12.55L6.81-12.55Q6.81-9.79 7.74-7.51 8.67-5.22 10.51-3.88 12.35-2.54 15.09-2.54L15.09-2.54Q16.82-2.54 18.41-3.1 20-3.66 21.61-4.71ZM46.09-5.54L46.09-2.49Q43.99-1.2 41.56-0.29 39.13 0.61 36.59 0.61L36.59 0.61Q33.57 0.61 30.92-0.74 28.27-2.1 26.63-4.86 25-7.62 25-11.79L25-11.79Q25-15.7 26.51-18.6 28.02-21.51 30.69-23.11 33.35-24.71 36.74-24.71L36.74-24.71Q41.4-24.71 43.75-21.81 46.09-18.92 46.09-14.45L46.09-14.45Q46.09-14.21 46.09-13.81 46.09-13.4 46.04-13.06L46.04-13.06 29.83-13.06Q29.83-11.16 30.23-9.27 30.64-7.37 31.59-5.83 32.54-4.3 34.15-3.37 35.76-2.44 38.18-2.44L38.18-2.44Q40.33-2.44 42.37-3.43 44.41-4.42 46.09-5.54L46.09-5.54ZM30.1-15.31L41.09-15.31 41.09-16.41Q41.09-18.87 39.9-20.56 38.72-22.24 36.23-22.24L36.23-22.24Q33.76-22.24 32.03-20.39 30.3-18.53 30.1-15.31L30.1-15.31Z" fill="#1d597d" data-fill-palette-color="primary"></path></g></svg></g></svg></g></svg></g></svg></g></svg></g><defs></defs></svg><rect width="395.5199999999999" height="225.6073927392739" fill="none" stroke="none" visibility="hidden"></rect></g></svg></g></svg>